<?xml version="1.0" encoding="UTF-8"?>
<svg id="_图层_1" data-name="图层 1" xmlns="http://www.w3.org/2000/svg" viewBox="0 0 680 696.32">
  <path d="M196.17,87.54s14.88,6.36,16.74,20.15c1.09,8.1-6.16,15.42-10.87,19.79l-24.12-37.07c5.24,1.52,12.12-2.32,15.73-9.1,3.83-7.24,2.57-15.08-2.87-17.53-5.39-2.4-12.87,1.54-16.68,8.83-3.09,5.84-2.87,12,.12,15.45l42.08,64.06s-1.32-18.04,6.37-30.28c10.17-16.33-1.47-28.2-26.5-34.29Z"/>
  <path d="M27.08,351.25s12.94-9.71,25.82-4.42c7.56,3.1,10.27,13.04,11.7,19.31l-44.17,2.35c3.94-3.78,4.06-11.66-.02-18.17-4.36-6.94-11.78-9.76-16.62-6.28-4.78,3.47-5.09,11.92-.69,18.86,3.51,5.59,8.96,8.48,13.44,7.62l76.52-4.41s-16.29-7.87-23.04-20.65c-9.06-16.98-25.15-12.83-42.95,5.8Z"/>
  <path d="M170.91,629.54s-1.94-16.06,9.08-24.57c6.46-4.99,16.43-2.37,22.57-.48l-20.05,39.43c-1.31-5.3-8.07-9.34-15.75-9.07-8.18.3-14.34,5.32-13.74,11.25.62,5.87,7.78,10.37,15.99,10.03,6.6-.24,11.82-3.52,13.31-7.83l34.43-68.47s-14.96,10.16-29.41,9.62c-19.23-.64-23.69,15.37-16.45,40.09Z"/>
  <path d="M483.84,644.13s-14.88-6.36-16.74-20.15c-1.09-8.1,6.16-15.42,10.87-19.79l24.12,37.08c-5.24-1.52-12.13,2.32-15.73,9.1-3.83,7.24-2.56,15.08,2.87,17.53,5.39,2.4,12.86-1.55,16.68-8.84,3.09-5.83,2.87-12-.12-15.44l-42.08-64.05s1.33,18.03-6.36,30.27c-10.17,16.34,1.46,28.2,26.5,34.29Z"/>
  <path d="M652.93,380.42s-12.95,9.71-25.82,4.42c-7.56-3.1-10.27-13.04-11.7-19.31l44.17-2.35c-3.94,3.78-4.06,11.66.02,18.18,4.35,6.94,11.78,9.76,16.62,6.28,4.77-3.47,5.09-11.92.69-18.87-3.51-5.59-8.96-8.48-13.43-7.62l-76.52,4.42s16.28,7.87,23.04,20.65c9.06,16.98,25.15,12.83,42.95-5.8Z"/>
  <path d="M509.09,102.12s1.93,16.07-9.08,24.57c-6.46,4.99-16.43,2.37-22.57.48l20.05-39.43c1.31,5.3,8.07,9.34,15.75,9.07,8.18-.3,14.34-5.32,13.75-11.25-.62-5.87-7.77-10.37-16-10.03-6.6.24-11.83,3.51-13.31,7.83l-34.43,68.47s14.95-10.16,29.4-9.62c19.24.64,23.7-15.37,16.46-40.09Z"/>
  <path d="M360.93,86.29l-11.11-.42c.29-1.33.34-2.7.21-4.03l-1.22-81.85-1.28.61.48,76.08c-4.26-5.9-13.99-7.36-22.58-3.21-5.34,2.57-9.03,6.7-10.5,11.06l-12.29-.46-.08,2.27,11.82.46c-.36,2.45-.03,4.88,1.19,7.08,3.74,6.86,14.19,8.91,23.4,4.57,4.97-2.4,8.54-6.19,10.15-10.26l11.74.44.08-2.35Z"/>
  <path d="M118.38,189.91l-5.92,9.41c-1.01-.92-2.17-1.65-3.38-2.2l-71.5-39.87-.11,1.41,66.12,37.63c-7.24.74-13.37,8.43-14.07,17.95-.44,5.9,1.29,11.16,4.33,14.62l-6.54,10.41,1.92,1.2,6.31-10c1.94,1.54,4.21,2.47,6.72,2.51,7.81.2,14.81-7.83,15.66-17.97.4-5.51-1.1-10.49-3.81-13.91l6.25-9.95-2-1.24Z"/>
  <path d="M86.84,451.78l5.2,9.83c-1.3.42-2.51,1.06-3.59,1.84l-70.28,41.98,1.17.8,65.65-38.45c-2.98,6.64.61,15.8,8.51,21.17,4.89,3.33,10.31,4.46,14.82,3.56l5.75,10.87,2-1.07-5.51-10.47c2.31-.92,4.24-2.42,5.54-4.57,4.08-6.67.62-16.74-7.74-22.55-4.57-3.11-9.63-4.29-13.96-3.65l-5.49-10.4-2.07,1.11Z"/>
  <path d="M297.86,610.02l11.1.42c-.29,1.34-.34,2.71-.21,4.03l1.22,81.85,1.29-.61-.48-76.08c4.27,5.9,13.99,7.37,22.59,3.21,5.33-2.57,9.02-6.7,10.5-11.06l12.29.46.08-2.27-11.82-.47c.36-2.46.03-4.88-1.19-7.08-3.74-6.87-14.19-8.91-23.4-4.57-4.97,2.4-8.53,6.19-10.14,10.26l-11.75-.44-.07,2.35Z"/>
  <path d="M540.41,506.4l5.92-9.41c1.01.92,2.17,1.65,3.38,2.2l71.5,39.87.11-1.42-66.13-37.62c7.24-.75,13.37-8.43,14.08-17.95.44-5.9-1.29-11.16-4.33-14.62l6.55-10.41-1.92-1.2-6.31,10c-1.95-1.54-4.21-2.46-6.72-2.51-7.82-.19-14.82,7.83-15.66,17.98-.41,5.51,1.1,10.49,3.81,13.91l-6.25,9.95,2,1.24Z"/>
  <path d="M571.94,244.54l-5.19-9.83c1.29-.41,2.51-1.06,3.59-1.84l70.28-41.98-1.18-.81-65.65,38.46c2.98-6.64-.61-15.8-8.51-21.16-4.89,3.33-10.31,4.46-14.82,3.57l-5.75-10.87-2,1.07,5.51,10.47c-2.3.92-4.24,2.42-5.53,4.57-4.08,6.67-.63,16.74,7.74,22.55,4.57,3.11,9.63,4.3,13.96,3.66l5.49,10.39,2.07-1.11Z"/>
</svg>
