<?xml version="1.0" encoding="UTF-8"?>
<svg id="_图层_1" data-name="图层 1" xmlns="http://www.w3.org/2000/svg" viewBox="0 0 1720 652.73">
  <path d="M334.33,431.05s1.82-1.38,5.34-4.05c3.53-2.66,8.97-6.63,16.07-11.47,14.31-9.56,35.81-23.18,65.41-35.25,14.78-6.01,31.57-11.57,50.25-15.78,2.32-.58,4.71-.96,7.1-1.46,1.2-.24,2.4-.47,3.61-.71l1.82-.36.46-.09s.49-.09.61-.1l.91-.13c4.86-.67,9.8-1.35,14.84-2.05,2.49-.42,5.14-.52,7.78-.7,2.64-.17,5.31-.34,8-.51,1.34-.08,2.7-.17,4.05-.26l2.04-.12h2.03c2.71.03,5.45.04,8.21.06,22.06.18,45.46,2.99,69.57,8.32,24.13,5.3,48.98,13.05,74.37,22.46,25.41,9.4,51.38,20.45,78.12,32.03,6.69,2.89,13.44,5.81,20.24,8.75,6.78,2.98,13.62,5.98,20.5,9.01,13.75,6.16,27.73,12.5,41.75,19.13,56.24,26.31,114.57,56.15,175.62,85.18,30.53,14.49,61.76,28.75,93.78,42.06,16.01,6.65,32.21,13.08,48.62,19.14,4.12,1.54,8.15,3.09,12.32,4.51,4.14,1.43,8.29,2.98,12.45,4.3,4.16,1.35,8.3,2.78,12.49,4.08,4.2,1.29,8.4,2.58,12.6,3.87,33.73,9.95,68.38,17.55,103.53,22.12,35.15,4.47,70.83,5.78,106.24,2.88,35.39-2.92,70.5-10.43,103.7-23.32,16.58-6.47,32.71-14.19,47.98-23.47,15.27-9.25,29.75-19.87,43.23-31.66l5.03-4.45,1.26-1.11.6-.53.61-.59,2.43-2.35,4.86-4.71,4.63-4.85c3.14-3.17,6.04-6.62,9.03-9.96,2.93-3.4,5.75-6.9,8.57-10.39,11.06-14.16,20.89-29.28,29.45-45.06,16.94-31.67,28.79-65.92,35.09-100.72,6.44-34.78,7.33-70.08,3.06-103.89-2.12-16.89-5.58-33.48-10.38-49.29-2.61-7.89-4.84-15.92-8.03-23.39-1.5-3.79-2.94-7.59-4.48-11.33-1.71-3.67-3.41-7.32-5.11-10.96-13.65-29.13-31.84-54.65-51.93-76.51-4.88-5.64-10.31-10.58-15.48-15.71-2.55-2.62-5.35-4.89-8.04-7.28-2.71-2.36-5.41-4.71-8.1-7.05-2.8-2.18-5.59-4.36-8.37-6.52-1.39-1.08-2.78-2.16-4.16-3.23l-2.07-1.61-2.14-1.49c-2.86-1.97-5.7-3.94-8.53-5.9-1.41-.98-2.83-1.95-4.23-2.93-1.45-.9-2.9-1.79-4.34-2.68-23-14.47-46.6-25.45-69.75-33.48-23.16-8.04-45.88-13.12-67.44-15.92-21.56-2.78-41.97-3.49-60.74-2.24-4.71.09-9.28.69-13.77,1.12-4.48.49-8.89.78-13.14,1.58-4.26.68-8.43,1.35-12.49,2-4.05.75-7.95,1.72-11.78,2.53-30.58,6.88-53.45,16.95-68.46,24.7-3.79,1.89-7.15,3.51-9.91,5.23-2.8,1.63-5.15,3-7.05,4.11-3.79,2.21-5.75,3.35-5.75,3.35,0,0,1.95-1.15,5.73-3.38,1.89-1.11,4.24-2.5,7.03-4.14,2.75-1.73,6.11-3.37,9.89-5.28,14.99-7.81,37.84-18,68.42-25.02,3.83-.83,7.73-1.82,11.78-2.59,4.07-.67,8.23-1.36,12.5-2.06,4.25-.82,8.67-1.13,13.16-1.64,4.5-.45,9.08-1.07,13.79-1.19,18.8-1.34,39.26-.72,60.89,1.97,21.62,2.72,44.42,7.71,67.69,15.67,23.26,7.95,46.99,18.87,70.15,33.3,1.45.89,2.91,1.78,4.37,2.67,1.42.97,2.84,1.94,4.26,2.92,2.85,1.95,5.71,3.91,8.59,5.89l2.16,1.49,2.09,1.61c1.39,1.07,2.79,2.15,4.19,3.23,2.8,2.16,5.61,4.33,8.43,6.51,2.71,2.34,5.43,4.69,8.17,7.05,2.72,2.38,5.55,4.66,8.12,7.28,5.22,5.14,10.7,10.08,15.63,15.73,20.3,21.91,38.72,47.52,52.6,76.82,1.72,3.66,3.46,7.34,5.19,11.03,1.57,3.77,3.04,7.62,4.58,11.44,3.26,7.6,5.5,15.56,8.15,23.45,4.94,16.04,8.48,32.68,10.69,49.74,4.44,34.1,3.69,69.74-2.68,104.88-6.22,35.17-18.05,69.82-35.06,101.93-8.59,16-18.48,31.35-29.63,45.74-2.84,3.55-5.68,7.11-8.64,10.56-3.02,3.4-5.93,6.89-9.13,10.15l-4.71,4.97-4.84,4.73-2.42,2.37-.61.59-.66.59-1.27,1.13-5.08,4.53c-13.61,12.01-28.23,22.83-43.68,32.27-15.43,9.47-31.75,17.37-48.51,24-33.57,13.2-69.07,20.95-104.82,24.06-35.77,3.09-71.78,1.92-107.24-2.43-35.46-4.45-70.41-11.95-104.43-21.83-4.24-1.28-8.48-2.56-12.71-3.84-4.23-1.29-8.43-2.72-12.64-4.07-4.23-1.33-8.33-2.85-12.5-4.26-4.15-1.4-8.33-2.98-12.42-4.49-16.52-6.01-32.81-12.4-48.91-19-32.2-13.22-63.58-27.37-94.22-41.76-61.28-28.81-119.72-58.38-175.92-84.38-14.04-6.56-27.92-12.78-41.66-18.87-6.9-3-13.75-5.97-20.54-8.92-6.8-2.9-13.55-5.79-20.24-8.64-26.77-11.45-52.65-22.33-77.86-31.53-25.2-9.21-49.73-16.74-73.42-21.83-23.68-5.12-46.51-7.75-67.94-7.83-2.68,0-5.34,0-7.97-.01h-1.97s-1.94.12-1.94.12c-1.29.09-2.58.18-3.86.26-2.56.17-5.1.34-7.62.51-2.52.18-5,.26-7.54.7-5.04.72-9.98,1.42-14.83,2.11l-.91.13c-.19.02,0,0-.29.05l-.44.09-1.77.36c-1.17.24-2.34.47-3.51.71-2.32.5-4.64.87-6.9,1.45-18.14,4.18-34.45,9.65-48.81,15.57-28.76,11.87-49.67,25.24-63.61,34.64-6.96,4.8-12.09,8.58-15.61,11.25-3.51,2.69-5.32,4.07-5.32,4.07-2.14,1.64-5.13,1.12-6.67-1.16-1.54-2.28-1.05-5.46,1.09-7.1h.02Z"/>
  <path d="M182.96,416.49s1.58-1.84,4.65-5.4c3.16-3.58,7.84-8.89,14.19-15.48,12.66-13.23,31.99-32.03,59.25-52.17,13.62-10.05,29.27-20.34,46.97-30.21,2.22-1.22,4.46-2.46,6.72-3.7,2.32-1.28,4.57-2.4,6.89-3.63,4.72-2.4,9.53-4.76,14.46-7.07,9.88-4.61,20.26-9.01,31.15-13.08,10.89-4.07,22.27-7.84,34.1-11.24,11.86-3.32,24.18-6.23,36.92-8.69,12.76-2.37,25.94-4.16,39.48-5.45,3.39-.21,6.81-.43,10.24-.64,3.41-.18,6.8-.48,10.27-.58,3.5-.04,7.01-.08,10.55-.12,3.53-.01,7.1-.17,10.64.06,28.43.71,57.93,5.04,87.65,12.63,29.7,7.75,59.61,18.52,89.82,30.71,30.22,12.21,60.82,25.81,92.05,39.71,7.79,3.56,15.62,7.14,23.48,10.74,7.82,3.77,15.74,7.43,23.58,11.34,7.84,3.9,15.75,7.75,23.59,11.83,3.93,2.02,7.88,4.03,11.83,6.06,3.93,2.07,7.87,4.14,11.82,6.21,63.16,33.19,126.77,70.7,192.89,105.52,8.27,4.33,16.56,8.69,24.92,12.9,4.17,2.1,8.36,4.29,12.53,6.33,4.22,2.06,8.44,4.13,12.66,6.19,4.21,2.11,8.47,4.02,12.72,6.01,4.26,1.95,8.48,4,12.78,5.87,8.61,3.74,17.17,7.62,25.9,11.07,17.34,7.24,35.04,13.58,52.87,19.47,8.97,2.76,17.9,5.67,26.98,8.01l6.79,1.85c2.26.63,4.52,1.24,6.81,1.74l13.68,3.2c18.31,3.89,36.75,7.22,55.33,8.91,9.27,1.15,18.59,1.42,27.89,1.98,4.65.22,9.31.09,13.96.15l6.98.03c2.33.05,4.64-.19,6.96-.26l13.92-.69c4.63-.35,9.24-.94,13.85-1.4l6.92-.73c2.22-.25,4.58-.69,6.87-1.03l6.9-1.09,6.79-1.36c18.1-3.67,35.93-9.01,53.11-15.86,34.35-13.71,66.35-33.5,93.46-58.69,27.12-25.11,49.34-55.69,63.76-89.58,7.23-16.92,12.5-34.61,15.71-52.55,3.21-17.94,4.35-36.11,3.62-54-.75-17.88-3.13-35.53-7.18-52.5-4.07-16.98-9.53-33.36-16.21-48.89-6.74-15.51-14.61-30.2-23.37-43.94-8.75-13.75-18.5-26.47-28.82-38.23-10.34-11.74-21.31-22.47-32.73-32.15-11.45-9.64-23.33-18.22-35.46-25.72-12.13-7.51-24.51-13.94-36.96-19.29-1.56-.67-3.11-1.33-4.66-2-1.57-.61-3.13-1.21-4.69-1.82-1.56-.6-3.12-1.2-4.67-1.8-1.53-.53-3.14-1.03-4.7-1.54-3.14-1.02-6.27-2.03-9.38-3.04-1.55-.5-3.1-1-4.64-1.5-1.55-.47-3.12-.8-4.68-1.2-3.11-.77-6.21-1.54-9.28-2.3-3.08-.75-6.11-1.6-9.2-2.05-3.07-.54-6.13-1.08-9.16-1.61-1.52-.27-3.03-.53-4.53-.8-1.5-.28-3.01-.54-4.52-.66-6.03-.65-11.98-1.28-17.84-1.91-5.88-.24-11.68-.48-17.38-.72-22.84-.29-44.18,1.95-63.67,5.42-4.85,1.03-9.59,2.03-14.24,3.01-1.16.25-2.32.5-3.46.75-1.13.31-2.26.62-3.38.93-2.24.62-4.46,1.23-6.66,1.83-8.83,2.19-17,5.23-24.82,7.86-.98.33-1.95.66-2.91.99-.96.35-1.89.76-2.82,1.13-1.86.76-3.7,1.51-5.51,2.25-3.62,1.48-7.14,2.91-10.55,4.3-6.66,3.19-12.9,6.19-18.71,8.98-5.66,3.13-10.89,6.02-15.68,8.67-1.21.64-2.35,1.34-3.45,2.06-1.11.7-2.19,1.38-3.24,2.05-2.11,1.33-4.11,2.6-6,3.79-1.89,1.2-3.67,2.32-5.33,3.38-1.66,1.07-3.12,2.21-4.52,3.19-2.78,2-5.11,3.68-6.99,5.04-3.76,2.71-5.7,4.11-5.7,4.11,0,0,1.94-1.41,5.69-4.13,1.88-1.36,4.21-3.05,6.98-5.07,1.4-.99,2.85-2.13,4.51-3.21,1.66-1.06,3.44-2.2,5.32-3.4,1.89-1.2,3.88-2.48,5.98-3.82,1.05-.67,2.13-1.36,3.24-2.07,1.1-.72,2.24-1.43,3.45-2.07,4.79-2.67,10.01-5.59,15.66-8.74,5.8-2.81,12.04-5.84,18.69-9.06,3.41-1.41,6.92-2.86,10.55-4.35,1.81-.75,3.65-1.5,5.51-2.27.93-.38,1.86-.79,2.82-1.14.96-.33,1.93-.67,2.91-1,7.82-2.66,15.99-5.74,24.82-7.97,2.19-.61,4.41-1.23,6.66-1.86,1.12-.31,2.25-.63,3.39-.95,1.15-.25,2.3-.51,3.47-.76,4.65-1,9.4-2.03,14.26-3.08,19.51-3.56,40.89-5.89,63.79-5.7,5.72.21,11.53.43,17.43.65,5.88.6,11.84,1.22,17.9,1.84,1.52.12,3.03.37,4.54.64,1.51.26,3.03.52,4.55.78,3.05.52,6.11,1.05,9.2,1.58,3.1.44,6.16,1.28,9.26,2.02,3.09.75,6.21,1.51,9.34,2.27,1.56.4,3.15.72,4.7,1.19,1.55.49,3.1.99,4.65,1.48,3.11.99,6.24,1.99,9.39,3,1.58.51,3.14.98,4.75,1.54,1.56.59,3.13,1.19,4.7,1.79,1.57.6,3.14,1.2,4.72,1.81,1.56.66,3.12,1.32,4.69,1.98,12.53,5.33,25,11.73,37.22,19.23,12.22,7.49,24.2,16.07,35.74,25.71,11.52,9.68,22.6,20.42,33.04,32.19,10.43,11.78,20.28,24.54,29.15,38.35,8.87,13.8,16.86,28.57,23.71,44.17,6.79,15.63,12.36,32.13,16.53,49.25,4.15,17.14,6.62,34.93,7.45,53.01.8,18.08-.27,36.49-3.46,54.67-3.17,18.19-8.46,36.14-15.72,53.32-14.49,34.41-36.89,65.49-64.25,91.02-27.35,25.62-59.65,45.77-94.36,59.8-17.37,7.01-35.34,12.48-53.75,16.29l-6.91,1.42-6.9,1.12c-2.33.35-4.55.79-6.96,1.07l-6.99.77c-4.66.48-9.32,1.1-14,1.47l-14.06.76c-2.35.09-4.69.34-7.04.3h-7.05c-4.7-.04-9.4.11-14.1-.09-9.39-.52-18.81-.75-28.17-1.87-18.78-1.63-37.4-4.91-55.87-8.76l-13.81-3.17c-2.31-.5-4.59-1.1-6.87-1.72l-6.85-1.84c-9.16-2.32-18.17-5.21-27.22-7.95-17.98-5.85-35.82-12.16-53.29-19.37-8.8-3.44-17.43-7.3-26.09-11.03-4.33-1.87-8.6-3.91-12.9-5.86-4.28-1.98-8.6-3.9-12.81-5.98-4.23-2.05-8.46-4.09-12.68-6.14-4.27-2.07-8.42-4.22-12.63-6.32-8.41-4.18-16.73-8.52-25.04-12.83-66.41-34.63-130.16-71.86-193.28-104.69-3.94-2.05-7.88-4.1-11.81-6.14-3.95-2-7.88-4-11.81-5.99-7.84-4.03-15.73-7.83-23.55-11.68-7.82-3.86-15.68-7.45-23.46-11.16-7.86-3.55-15.68-7.09-23.46-10.61-31.28-13.76-61.87-27.21-91.97-39.22-30.1-12-59.76-22.53-89.04-30.04-29.29-7.35-58.19-11.45-86.02-12.03-3.48-.21-6.92-.04-10.35-.01-3.43.05-6.83.1-10.22.15-3.4.11-6.84.42-10.23.62-3.36.22-6.71.45-10.04.67-13.27,1.32-26.19,3.13-38.7,5.5-12.49,2.46-24.56,5.37-36.18,8.67-11.6,3.39-22.75,7.13-33.41,11.17-10.67,4.03-20.84,8.39-30.5,12.95-4.84,2.29-9.54,4.62-14.1,6.96-2.28,1.22-4.64,2.41-6.79,3.62-2.21,1.23-4.4,2.45-6.57,3.66-17.31,9.74-32.61,19.89-45.91,29.8-26.63,19.85-45.49,38.33-57.84,51.34-6.21,6.5-10.73,11.69-13.79,15.16-3.06,3.58-4.63,5.42-4.63,5.42-1.78,2.08-4.8,2.23-6.76.34-1.95-1.89-2.1-5.11-.32-7.19v-.02Z"/>
  <path d="M.64,450.47s1.26-2.33,3.69-6.84c2.48-4.52,6.25-11.27,11.34-19.82,10.32-17.05,26.05-41.81,49.57-70.31,23.47-28.44,54.71-60.74,95.34-91.08,40.61-30.17,90.54-58.42,148.75-78.02,58.13-19.55,124.58-29.52,194.31-25.5,34.85,1.94,70.46,7.25,106.15,15.86,17.85,4.34,35.7,9.31,53.58,15.08,8.89,2.73,17.82,6.07,26.77,9.31,4.41,1.76,8.84,3.52,13.27,5.28,4.46,1.71,8.8,3.73,13.22,5.59,35.22,15.23,69.68,33.83,103.99,53.51,34.29,19.77,68.41,40.74,103.23,61,69.61,40.65,141.07,80.53,213.23,118.92,36.14,19.11,71.94,38.94,108.98,55.24,18.51,8.14,37.33,15.35,56.5,21.06,19.16,5.72,38.65,9.92,58.28,12.23l7.36.78,3.68.39c1.14.1,2.45.14,3.66.22l7.42.4c2.47.13,4.95.32,7.39.27,4.9-.03,9.79.12,14.69-.07,4.9-.27,9.79-.44,14.67-.8,19.52-1.51,38.79-5.13,57.42-10.66,18.63-5.55,36.61-13.12,53.4-22.77,16.78-9.64,32.35-21.38,46.05-35.05l5.06-5.2,2.52-2.6,2.33-2.79,4.65-5.57,2.32-2.78.58-.69c.2-.23.34-.42.54-.69l1.09-1.47c1.43-1.97,2.94-3.9,4.29-5.9l4.04-5.99,3.81-6.17c1.26-2.06,2.39-4.2,3.59-6.3,9.29-16.96,16.33-35.1,20.98-53.71,9.48-37.22,9.88-75.95,3.04-111.9-1.75-8.99-3.87-17.84-6.52-26.44-2.66-8.6-5.72-16.99-9.17-25.12-1.82-4.02-3.57-8.05-5.58-11.93l-1.46-2.93c-.44-.92-1.05-1.89-1.56-2.83-1.07-1.9-2.14-3.79-3.21-5.68-1.07-1.89-2.14-3.78-3.2-5.66-1.04-1.91-2.32-3.6-3.46-5.41-2.38-3.54-4.64-7.14-7.08-10.59-9.92-13.72-21.01-26.03-32.64-37.23-6.07-5.29-11.88-10.8-18.23-15.45-1.55-1.21-3.1-2.41-4.65-3.62l-2.32-1.79-2.41-1.64c-3.21-2.19-6.4-4.37-9.58-6.53-1.56-1.13-3.24-2.04-4.87-3.03-1.64-.97-3.27-1.95-4.9-2.92-1.63-.97-3.25-1.94-4.88-2.9-1.6-1-3.32-1.76-4.97-2.64-3.33-1.71-6.63-3.41-9.92-5.1-3.33-1.59-6.72-2.98-10.05-4.47-1.67-.73-3.33-1.46-4.99-2.19-1.66-.73-3.38-1.27-5.06-1.91-3.38-1.24-6.73-2.47-10.06-3.69-3.36-1.15-6.76-2.06-10.11-3.09-3.36-.98-6.67-2.08-10.05-2.77-26.82-6.66-53.12-8.42-77.64-7.61-24.55.79-47.43,4.34-68.07,9.73-20.65,5.42-39.04,12.72-54.93,20.85-7.92,4.12-15.25,8.39-21.96,12.75-6.66,4.43-12.8,8.77-18.24,13.21-10.97,8.75-19.56,17.2-26.14,24.42-1.68,1.77-3.19,3.51-4.58,5.16-1.39,1.65-2.74,3.15-3.9,4.61-2.3,2.95-4.32,5.37-5.81,7.43-3,4.11-4.55,6.22-4.55,6.22,0,0,1.54-2.13,4.53-6.24,1.49-2.06,3.49-4.49,5.79-7.45,1.16-1.47,2.5-2.97,3.89-4.63,1.39-1.66,2.89-3.41,4.57-5.18,6.56-7.24,15.13-15.74,26.08-24.54,5.43-4.46,11.57-8.83,18.22-13.3,6.7-4.39,14.02-8.69,21.95-12.85,15.89-8.21,34.29-15.59,54.96-21.1,20.67-5.48,43.58-9.12,68.19-10.02,24.58-.91,50.96.75,77.94,7.34,3.4.67,6.73,1.77,10.11,2.74,3.36,1.02,6.79,1.92,10.16,3.06,3.35,1.22,6.73,2.44,10.12,3.67,1.69.64,3.42,1.18,5.09,1.9,1.67.73,3.35,1.45,5.03,2.18,3.35,1.48,6.76,2.87,10.12,4.45,3.31,1.69,6.64,3.38,9.99,5.09,1.66.88,3.39,1.64,5,2.64,1.63.96,3.27,1.93,4.91,2.9,1.64.97,3.29,1.94,4.94,2.91,1.64.99,3.33,1.9,4.91,3.03,3.2,2.17,6.42,4.34,9.65,6.53l2.43,1.64,2.34,1.79c1.56,1.2,3.12,2.41,4.69,3.62,6.4,4.66,12.27,10.18,18.4,15.48,11.75,11.23,22.96,23.58,33.01,37.37,2.48,3.47,4.78,7.11,7.2,10.69,1.16,1.82,2.47,3.55,3.51,5.45,1.07,1.88,2.14,3.76,3.22,5.65,1.08,1.89,2.15,3.78,3.23,5.67.54.97,1.09,1.84,1.61,2.9l1.48,2.95c2.04,3.91,3.82,7.98,5.67,12.02,3.51,8.19,6.64,16.65,9.35,25.32,2.71,8.68,4.87,17.6,6.67,26.67,7.03,36.27,6.77,75.39-2.69,113.1-4.64,18.85-11.7,37.26-21.07,54.5-1.21,2.13-2.35,4.31-3.62,6.41l-3.84,6.28-4.11,6.14c-1.37,2.05-2.86,3.95-4.29,5.94-1.38,2-3.06,3.89-4.59,5.77l-4.7,5.67-2.36,2.84-2.55,2.65-5.12,5.3c-13.85,13.92-29.6,25.9-46.58,35.73-16.98,9.85-35.17,17.58-54.01,23.27-18.84,5.68-38.33,9.41-58.07,11.02-4.94.38-9.89.57-14.84.86-4.96.2-9.95.07-14.94.12-2.51.06-4.97-.12-7.44-.24l-7.42-.38c-1.26-.07-2.43-.1-3.76-.21l-3.72-.38-7.45-.76c-19.86-2.26-39.59-6.43-58.96-12.13-19.37-5.69-38.38-12.9-57.04-21.01-37.34-16.26-73.28-36-109.46-54.95-72.35-38.13-144-77.77-213.82-118.18-34.95-20.15-69.16-41-103.41-60.57-34.27-19.49-68.6-37.84-103.55-52.79-4.38-1.82-8.7-3.82-13.11-5.49-4.39-1.73-8.78-3.45-13.15-5.17-8.81-3.15-17.51-6.38-26.49-9.1-17.7-5.63-35.5-10.52-53.16-14.74-35.36-8.38-70.58-13.49-105-15.27-68.88-3.7-134.32,6.4-191.5,25.88-57.26,19.53-106.34,47.55-146.19,77.39-39.85,29.99-70.47,61.88-93.44,89.93-23.02,28.1-38.4,52.5-48.48,69.29-5,8.46-8.62,15-11.05,19.47-2.42,4.52-3.66,6.85-3.66,6.85-1.31,2.44-4.23,3.3-6.52,1.91-2.3-1.39-3.1-4.5-1.79-6.94v-.02Z"/>
  <path d="M97.51,181.82s1.81-1.48,5.33-4.34c3.47-2.87,8.85-7.08,15.85-12.48,14.04-10.68,35.1-25.76,63.39-42.24,14.23-8.06,30.18-16.62,48.06-24.73,17.9-8.05,37.62-15.87,59.11-22.82,21.55-6.76,44.85-12.51,69.74-16.84,3.09-.51,6.2-1.02,9.32-1.53,3.18-.42,6.38-.84,9.59-1.27,6.44-.94,12.94-1.45,19.53-2.14,13.18-1.07,26.7-1.88,40.51-1.91,27.62-.32,56.39,1.74,85.86,5.96,14.74,2.1,29.63,4.91,44.68,8.12,15.04,3.25,30.18,7.16,45.43,11.49,60.98,17.5,123.09,43.66,184.72,75.96,30.87,16.06,61.48,33.98,91.92,53.16,30.41,19.17,60.59,39.56,90.79,60.43,60.38,41.73,121.09,85.13,184.8,123.1l24.02,13.95c8.12,4.42,16.23,8.85,24.34,13.27,16.42,8.4,32.76,16.94,49.63,24.1,16.78,7.19,33.92,13.54,51.33,18.55,17.41,5,35.06,8.82,52.81,11.19,17.75,2.33,35.61,3.4,53.31,2.41,17.7-.94,35.22-3.63,52.2-8.17l6.35-1.78,3.17-.89c1-.27,2.08-.69,3.12-1.02,4.23-1.37,8.29-2.95,12.35-4.54,8.11-3.33,15.98-7.23,23.55-11.63,15.18-8.74,29-19.85,40.84-32.78,5.91-6.48,11.2-13.54,15.91-20.94l1.75-2.79c.27-.45.63-.97.83-1.36l.79-1.47,3.16-5.86c.51-.98,1.1-1.94,1.53-2.94l1.34-3,2.67-5.98c6.65-16.27,10.43-33.63,11.97-50.95,3.07-34.76-3.11-69.32-15.04-99.98-5.98-15.38-13.35-29.89-21.9-43.25-4.2-6.74-8.84-13.08-13.58-19.24-2.46-2.99-4.82-6.07-7.4-8.91-1.27-1.44-2.54-2.88-3.8-4.31-1.31-1.39-2.62-2.77-3.92-4.15-10.47-11.02-21.93-20.55-33.75-28.93-11.9-8.28-24.29-15.21-36.86-20.91-12.61-5.61-25.39-9.99-38.12-13.21-12.74-3.16-25.43-5.15-37.86-6.14-24.88-2-48.7.34-70.38,5.52-21.71,5.2-41.26,13.37-58.2,23.09-8.49,4.83-16.28,10.15-23.45,15.63-7.16,5.48-13.72,11.13-19.58,16.91-3.01,2.8-5.69,5.8-8.41,8.59-1.3,1.46-2.57,2.9-3.83,4.32-1.27,1.41-2.5,2.82-3.65,4.27-1.17,1.43-2.32,2.84-3.45,4.22-1.13,1.38-2.15,2.83-3.21,4.2-1.04,1.39-2.09,2.73-3.06,4.09-.96,1.38-1.9,2.73-2.82,4.06-7.34,10.66-12.7,20.39-16.78,28.4-1.97,4.05-3.75,7.6-5.08,10.78-1.39,3.15-2.58,5.79-3.4,7.97-1.72,4.34-2.61,6.58-2.61,6.58,0,0,.88-2.24,2.59-6.59.81-2.19,1.99-4.84,3.37-7.99,1.32-3.18,3.09-6.75,5.04-10.81,4.05-8.03,9.37-17.78,16.68-28.49.92-1.33,1.85-2.69,2.81-4.08.97-1.37,2.02-2.72,3.05-4.11,1.05-1.38,2.07-2.83,3.2-4.22,1.13-1.39,2.27-2.8,3.44-4.24,1.14-1.45,2.37-2.87,3.63-4.29,1.26-1.43,2.53-2.88,3.82-4.35,2.72-2.8,5.39-5.82,8.4-8.64,5.85-5.82,12.4-11.5,19.56-17.03,7.16-5.52,14.95-10.89,23.45-15.77,16.95-9.82,36.54-18.11,58.3-23.42,21.74-5.29,45.65-7.75,70.66-5.85,12.49.93,25.25,2.88,38.08,6,12.81,3.18,25.69,7.53,38.4,13.12,12.67,5.68,25.18,12.61,37.19,20.9,11.94,8.38,23.53,17.94,34.13,29.01,1.32,1.39,2.64,2.78,3.97,4.17,1.28,1.44,2.56,2.88,3.85,4.33,2.61,2.86,5,5.95,7.5,8.96,4.8,6.19,9.51,12.57,13.77,19.35,8.68,13.44,16.18,28.07,22.27,43.56,12.17,30.93,18.57,65.84,15.59,101.14-1.5,17.59-5.26,35.26-11.99,51.9l-2.73,6.18-1.37,3.09c-.45,1.04-1.02,1.97-1.53,2.96l-3.14,5.88-.79,1.47c-.32.6-.6.98-.9,1.49l-1.77,2.86c-4.78,7.58-10.15,14.81-16.15,21.44-12.02,13.25-26.06,24.61-41.46,33.57-7.69,4.51-15.67,8.51-23.9,11.93-4.15,1.65-8.34,3.3-12.52,4.67-1.07.35-2.05.74-3.18,1.06l-3.21.92-6.43,1.84c-17.2,4.68-34.95,7.48-52.88,8.51-17.93,1.07-36.01.07-53.97-2.21-17.96-2.32-35.82-6.1-53.41-11.08-17.61-4.99-34.88-11.3-51.9-18.51-17-7.13-33.48-15.65-50-24.02-8.16-4.4-16.33-8.81-24.5-13.22l-24.17-13.9c-64.09-37.83-125.07-81.05-185.55-122.48-30.25-20.71-60.44-40.94-90.82-59.9-30.33-18.94-60.9-36.66-91.69-52.51-61.46-31.87-123.26-57.58-183.75-74.66-15.13-4.22-30.13-8.03-45.02-11.18-14.9-3.11-29.63-5.82-44.21-7.83-29.14-4.04-57.53-5.96-84.75-5.52-13.61.09-26.92.95-39.9,2.06-6.47.71-12.91,1.24-19.16,2.19-3.14.43-6.26.85-9.36,1.28-3.13.53-6.23,1.05-9.32,1.57-24.42,4.37-47.37,10.12-68.54,16.87-21.12,6.94-40.5,14.71-58.08,22.71-17.57,8.06-33.24,16.56-47.21,24.55-27.79,16.35-48.47,31.29-62.26,41.86-6.85,5.33-12.05,9.42-15.56,12.35-3.51,2.88-5.31,4.36-5.31,4.36-2.09,1.72-5.09,1.3-6.71-.92-1.61-2.23-1.23-5.42.86-7.14h.02Z"/>
</svg>