<?xml version="1.0" encoding="UTF-8"?>
<svg id="_图层_1" data-name="图层 1" xmlns="http://www.w3.org/2000/svg" viewBox="0 0 1841.45 962.27">
  <path d="M1348.23,771.53c-293.85,0-491.54-143.21-700.44-294.53-34.79-25.2-70.76-51.26-107.09-76.53C285.44,222.83,8.58,165.76,5.81,165.2c-1.46-.29-2.38-1.58-2.05-2.88.33-1.3,1.78-2.1,3.25-1.81,2.78.56,280.79,57.84,537.05,236.17,36.36,25.3,72.35,51.38,107.16,76.59,215.87,156.37,419.84,304.08,730.11,292.84,205.2-7.42,365.13-73.09,427.81-175.66,39.66-64.9,35.27-139.59-12.35-210.3-17.13-25.44-40.92-53.82-66.11-83.86-68.67-81.92-146.51-174.77-137.35-261.19.14-1.32,1.42-2.29,2.96-2.17,1.49.12,2.59,1.3,2.45,2.62-8.97,84.58,68.21,176.64,136.31,257.87,25.27,30.15,49.14,58.62,66.41,84.26,48.64,72.22,53.07,148.6,12.46,215.05-63.6,104.08-225.23,170.69-432.36,178.18-11.23.41-22.37.61-33.33.61Z"/>
  <path d="M1332.42,814.69c-122.33,0-236.75-24.57-354.43-75.54-128.66-55.73-246.34-136.59-370.93-222.2-23.09-15.87-46.97-32.27-70.95-48.54C259.92,281.11,7.54,240.91,5.02,240.53c-1.48-.23-2.47-1.47-2.21-2.78s1.65-2.19,3.13-1.96c2.53.39,256.14,40.74,533.46,228.81,23.99,16.27,47.88,32.68,70.98,48.56,251.54,172.83,468.77,322.09,804.99,293.08,156.04-13.47,280.65-67.71,341.88-148.83,65.29-86.5,62.86-183.54-6.83-273.26-17.86-23-39.79-47.08-63-72.57-30.35-33.34-61.74-67.81-88.62-104.7-51.47-70.6-72.27-127.81-65.46-180.04.17-1.32,1.52-2.28,3.01-2.11,1.49.15,2.56,1.35,2.39,2.66-6.65,51.06,13.89,107.27,64.63,176.88,26.73,36.68,58.03,71.05,88.29,104.29,23.28,25.57,45.26,49.71,63.25,72.87,71.03,91.45,73.47,190.41,6.86,278.65-62.13,82.32-188.19,137.34-345.86,150.94-28.3,2.44-56.09,3.67-83.48,3.67Z"/>
  <path d="M1314.65,860.69c-116.99,0-228.19-22.5-342.14-68.55-141.93-57.36-277.11-147.05-420.22-242l-20.77-13.78C234.42,339.42,6.54,316.06,4.27,315.85c-1.49-.14-2.57-1.32-2.41-2.64.16-1.32,1.5-2.28,2.98-2.14.57.05,58.24,5.7,151.96,35.73,86.38,27.69,222.08,82.38,377.96,185.72l20.77,13.78c295.04,195.75,528.07,350.38,893.88,300.06,157.54-21.67,271.28-89,312.05-184.75,39.09-91.81,19.24-186.38-57.41-273.48-18.24-20.73-38.67-41.46-60.29-63.41-36.39-36.93-74.02-75.12-105.05-117.32-52.44-71.25-73.82-133.02-65.36-188.84.2-1.32,1.57-2.23,3.05-2.06,1.49.18,2.53,1.39,2.33,2.7-8.27,54.63,12.83,115.33,64.53,185.57,30.83,41.91,68.33,79.97,104.59,116.78,21.68,22,42.15,42.78,60.49,63.61,77.88,88.49,98,184.67,58.21,278.13-41.48,97.42-156.77,165.87-316.3,187.81-46.33,6.37-91.38,9.59-135.6,9.59Z"/>
  <path d="M1295.03,909.85c-106,0-208.06-18.59-312.13-56.2-150.49-54.4-295.55-145.1-455.99-249.34-166.15-107.94-299.6-160.15-382.3-184.94-89.58-26.85-140.53-28.2-141.04-28.21-1.5-.03-2.68-1.13-2.65-2.46.03-1.33,1.23-2.35,2.77-2.35.51.01,52.05,1.35,142.31,28.36,83.12,24.88,217.24,77.3,384.12,185.72,346.23,224.94,583.17,356.43,953.33,286.05,157.68-29.99,263.24-112.49,282.38-220.7,16.31-92.27-20.07-184.36-108.14-273.71-17.9-18.15-36.61-35.76-56.42-54.4-42.97-40.43-87.39-82.24-122.66-129.77-54.14-72.93-75.48-137.57-65.26-197.62.23-1.31,1.58-2.19,3.09-2.02,1.48.2,2.5,1.42,2.28,2.74-10.02,58.82,11.05,122.37,64.43,194.27,35,47.18,79.27,88.83,122.07,129.11,19.85,18.67,38.59,36.32,56.55,54.54,89.18,90.47,125.99,183.86,109.42,277.61-19.49,110.25-126.64,194.24-286.6,224.66-65.28,12.41-128.09,18.67-189.56,18.67Z"/>
  <path d="M1275.56,962.27c-91.84,0-181.25-14.15-272.04-42.53-152.37-47.63-297.09-130.01-481.21-247.49-177-112.94-308.81-162.88-388.21-184.89C48.1,463.52,3.38,466.42,2.94,466.45c-1.52.13-2.8-.88-2.93-2.2-.12-1.32.98-2.48,2.48-2.59,1.84-.14,45.88-3.04,132.72,20.97,79.87,22.08,212.41,72.23,390.28,185.72,332.28,212.03,597.94,354.66,992,258.27,160.78-39.33,255.28-135.3,252.81-256.72-2.37-116.37-86.21-207.49-158.98-273.88-16.26-14.83-33.21-29.64-49.6-43.97-50.75-44.34-103.21-90.19-143.2-143.64-55.86-74.66-77.17-142.18-65.15-206.41.24-1.31,1.63-2.22,3.12-1.98,1.48.22,2.48,1.46,2.23,2.76-11.79,62.97,9.26,129.37,64.32,202.97,39.68,53.03,91.94,98.71,142.49,142.87,16.41,14.34,33.38,29.17,49.68,44.04,67.74,61.79,158.07,157.75,160.51,277.13,1.33,65.23-23.79,122.33-74.66,169.73-44.9,41.83-107.88,73.55-182.13,91.71-84.46,20.66-164.81,31.02-243.37,31.02Z"/>
</svg>