<?xml version="1.0" encoding="UTF-8"?>
<svg id="_图层_1" data-name="图层 1" xmlns="http://www.w3.org/2000/svg" viewBox="0 0 157.51 157.17">
  <defs>
    <style>
      .cls-1 {
        fill: #040000;
      }
    </style>
  </defs>
  <path class="cls-1" d="M123.89,69.21C116.5,162.78,0,157.1,0,157.1c96.8-6.51,99.22-91.13,99.22-91.13C106.59,1.33,61.54,8.38,61.54,8.38c-20.7,2.28-27,13.91-28.61,23.47,3.92-2,8.37-2.79,12.91-1.98,12.4,2.21,20.8,15.35,18.75,29.37-2.05,14.01-13.76,23.58-26.17,21.38s-20.79-15.34-18.75-29.36c.05-.34.13-.65.19-.98C24.48,1.04,60.67.11,60.67.11c70.68-3.35,63.23,69.09,63.23,69.09h0ZM148.96,31.13c-5.56-.98-10.78,3.18-11.68,9.31-.91,6.12,2.87,11.91,8.43,12.88,5.54.98,10.78-3.18,11.67-9.31.89-6.12-2.87-11.9-8.42-12.88ZM148.95,87.73c-5.56-.98-10.79,3.19-11.69,9.33-.88,6.12,2.88,11.9,8.44,12.87,5.56.98,10.78-3.17,11.68-9.31.89-6.12-2.87-11.89-8.42-12.89h-.01Z"/>
</svg>