<?xml version="1.0" encoding="UTF-8"?>
<svg id="_图层_1" data-name="图层 1" xmlns="http://www.w3.org/2000/svg" viewBox="0 0 30.87 80.92">
  <path d="M30.85,51.84c-.06-1.22-.78-11.41-12.33-11.26l-1.46-7.97c.65-.57,6.05-5.43,7.84-13.01C26.97,10.92,23.76,0,20.87,0c-2.64,0-6.93,9.8-7.8,12.78-.78,2.68-1.9,5.76.35,13.35,0,0-12.04,10.09-13.13,18.63,0,0-2.63,10.57,7.72,17.54,0,0,5.89,3.27,12.63,2.16l.35,1.93s0,.05.02.08c0,.04.9,3.59.16,6.84-.64,2.81-2.24,4.46-4.89,5.04-3.96.87-6.4.07-8.07-1.02,2.71-.11,4.69-2.33,4.69-5.06s-2.27-5.08-5.08-5.08c-2.66,0-5.1,2.32-5.33,4.91-.24,1.59.47,4.06,2.69,6.14,1.23,1.15,3.97,2.68,7.94,2.68,1.09,0,2.3-.12,3.63-.42,3.47-.76,5.74-3.08,6.57-6.71.83-3.62-.53-9.81-.53-9.81,1.59-.68,8.47-4.09,8.04-12.14ZM19.16,8.07s2.82-2.65,4.25.67c1.34,3.13-1.58,10.8-8.03,16.38,0,0-2.96-9.84,3.79-17.05ZM3.79,52.86c-2-8.34,9.03-17.1,11.29-18.79l1.27,6.94c-1.72.68-7.61,3.5-7.2,10.03.49,7.64,6.72,8.41,6.72,8.41,0,0,.81.19.99,0,.32-.38-.47-.68-.47-.68-2.04-1.02-3.95-2.63-3.97-6.49-.01-3.39,3.99-5.13,4.99-5.51l2.99,16.31c-4.71.92-14.41-1.08-16.6-10.2ZM22.52,62.42l-2.95-16.09c3.34-.53,6.61,2.24,7.58,5.05,2.42,7.01-3.22,10.33-4.64,11.04Z"/>
</svg>